<?xml version="1.0" standalone="no"?>
<!DOCTYPE svg PUBLIC "-//W3C//DTD SVG 20010904//EN"
 "http://www.w3.org/TR/2001/REC-SVG-20010904/DTD/svg10.dtd">
<svg version="1.0" xmlns="http://www.w3.org/2000/svg"
 width="200.000000pt" height="200.000000pt" viewBox="0 0 200.000000 200.000000"
 preserveAspectRatio="xMidYMid meet">

<g transform="translate(0.000000,200.000000) scale(0.100000,-0.100000)"
fill="#482673" stroke="none">
<path d="M832 1985 c-215 -39 -385 -127 -537 -280 -181 -180 -279 -402 -292
-660 -24 -477 294 -899 767 -1018 115 -29 329 -30 445 -3 380 87 674 381 761
761 27 116 26 330 -3 445 -86 342 -331 609 -660 719 -145 49 -333 63 -481 36z
m383 -179 c234 -65 435 -235 539 -457 51 -108 68 -179 73 -317 5 -102 2 -137
-16 -216 -73 -313 -314 -554 -627 -627 -79 -18 -114 -21 -216 -16 -138 5 -209
22 -317 73 -224 105 -393 306 -458 544 -25 91 -25 329 0 420 83 304 324 534
637 606 76 18 306 12 385 -10z"/>
<path d="M1434 1383 c-11 -2 -143 -127 -294 -278 l-274 -275 -102 100 c-111
110 -136 120 -188 79 -20 -16 -26 -29 -26 -61 0 -40 6 -47 138 -180 148 -147
161 -155 220 -124 45 24 620 608 627 638 14 54 -42 111 -101 101z"/>
</g>
</svg>
